<svg xmlns="http://www.w3.org/2000/svg" viewBox="0 0 951.23 369.54"><defs><style>.cls-1,.cls-2{fill:#333;}.cls-2{font-size:56px;font-family:Avenir-Book, Avenir;letter-spacing:0.09em;}.cls-3{letter-spacing:0.1em;}.cls-4{fill:#0b391d;}</style></defs><g id="Layer_2" data-name="Layer 2"><g id="Layer_2-2" data-name="Layer 2"><path class="cls-1" d="M221.27,233.92c-43.34,22.67-112.35,21.25-132.82-30.63-15.68-37.7,0-88.7,40.94-102.09,28.28-9.53,66.06-7.45,88.82,13.27L195.75,139c-16.6-18.11-50.7-18.64-67.79-.51-12.66,13-15.24,35.39-9.09,52.07,9.41,29.23,48.3,34.18,71.77,20.73V187.78H164.71V158.37h56.56Z"/><path class="cls-1" d="M307.64,231.67h-.4c-11.59,17.87-40,19.22-56.16,7.15-14.68-11-14.08-37.09,1.13-47.17,15.63-10.71,37.29-10.39,55.43-10.61-.84-23.72-33.59-21.12-44.51-5.93L246.8,158.37c16.17-15.7,45.78-19.74,65.85-12.56,34.75,13.26,20.15,69.55,23.18,98.32H307.64Zm-7.55-31c-8.32.05-20.09.39-26.85,6.33-4.76,3.79-4.65,13.26,1.32,16.13,10.12,5.56,25.18,2.15,31.15-7.76,2.41-3.67,1.91-10.27,1.93-14.7Z"/><path class="cls-1" d="M450.57,244.13h-29.4V230.65h-.41C412.59,247,387.41,250.14,372.88,243c-28.09-12.59-15-73-17.87-98.12h30.63v48.6c-.33,11,1.17,26.9,15.93,26.14,14.72.89,19-13.22,18.38-25.32V144.89h30.62Z"/><path class="cls-1" d="M475.08,89.76H505.7v65.75h.41c7.3-10,19.35-12.93,31.45-13.06,28.05-.61,45.82,27,45.33,52.88,3,42.34-51.22,70.77-79.23,35.73h-.41v13.07H475.08Zm28.17,104.75c-1.41,33.53,50.43,33.53,49,0C553.67,161,501.83,161,503.25,194.51Z"/><path class="cls-1" d="M694.78,227c-39.24,46.17-117.18,5-92.7-53.91,10.84-26,44.82-37.14,70.14-26.95,22.77,9.22,28.74,35.18,27.26,58H628.42c3.46,22.36,34.07,25.33,44.93,7.15Zm-25.93-43.7c.66-25.55-39.48-24-40.43,0Z"/><path class="cls-1" d="M718.06,144.89h30.63v15.93h.41c7.39-15.56,22.52-21.18,38.79-17.36v28c-53-14.09-36.61,41.26-39.2,72.69H718.06Z"/><path class="cls-1" d="M868.76,169.4h-27c.86,9.6-2.16,37.91,2.25,46.35,4.52,7,18,6.36,24.71,2.24v25.53c-15,4.52-34,5.13-47.17-3.78-17.28-10.51-8.36-53.8-10.42-70.34h-19.6V144.89h19.6v-29.4H841.8v29.4h27Z"/><text class="cls-2" transform="translate(133.09 350.6)">BROKERAGE SE<tspan class="cls-3" x="472.47" y="0">R</tspan><tspan x="511.05" y="0">VICES</tspan></text><polygon class="cls-4" points="0 0 0 337.65 82.47 337.65 82.47 321.65 16 321.65 16 16 935.23 16 935.23 321.65 868.76 321.65 868.76 337.65 951.23 337.65 951.23 0 0 0"/></g></g></svg>